<svg xmlns="http://www.w3.org/2000/svg" viewBox="0 0 100 100"><defs><style>.cls-1{fill:#fff;}</style></defs><title>cores-icon</title><g id="Layer_2" data-name="Layer 2"><g id="BaseLayer"><path class="cls-1" d="M42.31,27.11,50,19.42l7.69,7.69L50,34.8ZM30.86,38.55l7.69-7.69,7.69,7.69-7.69,7.69ZM19.42,50l7.69-7.69L34.8,50l-7.69,7.69ZM53.76,38.55l7.69-7.69,7.69,7.69-7.69,7.69ZM42.31,50,50,42.31,57.69,50,50,57.69ZM30.86,61.45l7.69-7.69,7.69,7.69-7.69,7.69Zm42-19.14L80.58,50l-7.69,7.69L65.2,50ZM53.76,61.45l7.69-7.69,7.69,7.69-7.69,7.69ZM42.31,72.89,50,65.2l7.69,7.69L50,80.58Z"/><path class="cls-1" d="M81.62,76.56,79,74l-5,5,2.59,2.59a3.68,3.68,0,0,1,0,5.18h0a3.65,3.65,0,0,1-5.17,0L68.8,84.21,55.06,98a7.27,7.27,0,0,1-10.12,0L31.2,84.21,28.61,86.8a3.65,3.65,0,0,1-5.17,0h0a3.66,3.66,0,0,1,0-5.18L26,79,21,74l-2.59,2.58a3.66,3.66,0,0,1-5.18,0h0a3.65,3.65,0,0,1,0-5.17l2.59-2.59L2.05,55.06a7.27,7.27,0,0,1,0-10.12L15.79,31.2,13.2,28.61a3.65,3.65,0,0,1,0-5.17h0a3.68,3.68,0,0,1,5.18,0L21,26,26,21l-2.58-2.59a3.66,3.66,0,0,1,0-5.18h0a3.65,3.65,0,0,1,5.17,0l2.59,2.59L44.94,2.05a7.27,7.27,0,0,1,10.12,0L68.8,15.79l2.59-2.59a3.65,3.65,0,0,1,5.17,0h0a3.68,3.68,0,0,1,0,5.18L74,21,79,26l2.59-2.59a3.68,3.68,0,0,1,5.18,0h0a3.65,3.65,0,0,1,0,5.17L84.21,31.2,98,44.94a7.27,7.27,0,0,1,0,10.12L84.21,68.8l2.59,2.59a3.65,3.65,0,0,1,0,5.17h0A3.66,3.66,0,0,1,81.62,76.56ZM50,92.9,92.9,50,50,7.1,7.1,50Z"/></g></g></svg>