<svg xmlns="http://www.w3.org/2000/svg" viewBox="0 0 79.85 80.56"><defs><style>.cls-1{fill:#fff;}</style></defs><title>heat-output-icon</title><g id="Layer_2" data-name="Layer 2"><g id="BaseLayer"><path class="cls-1" d="M56.78,53.82A21.59,21.59,0,0,1,26.25,23.28c1.17-1.17-1.85-6.21-1.85-6.21L10.15,2.81A3.5,3.5,0,0,0,5.2,7.76L19.45,22A31.24,31.24,0,0,0,16,28.14l-10.74-3A3.32,3.32,0,0,0,1.08,27.6h0a3.33,3.33,0,0,0,2.35,4.16l10.87,3a27.67,27.67,0,0,0-.09,7.1l-11.6,3a3.46,3.46,0,1,0,1.68,6.72l11.56-3a24.5,24.5,0,0,0,3.88,6.85L3,72.18a3.5,3.5,0,0,0,5,4.95l16.8-16.8A33.35,33.35,0,0,0,31,64L27.84,75.32a3.47,3.47,0,1,0,6.69,1.83l3.11-11.37a28.36,28.36,0,0,0,7.13.08l3.16,12.07a3.47,3.47,0,0,0,6.73-1.68L51.34,64.34a33.38,33.38,0,0,0,6.71-3.73L72.3,74.86a3.5,3.5,0,0,0,5-5L63,55.66S58,52.65,56.78,53.82Z"/><rect class="cls-1" x="37.44" y="4.67" width="7" height="67.75" transform="translate(-15.27 40.24) rotate(-45)"/><rect class="cls-1" x="51.17" y="2.87" width="7" height="45.04" transform="translate(33.97 -31.22) rotate(45)"/><polygon class="cls-1" points="72.71 18.46 74.08 5.76 61.45 7.51 72.71 18.46"/><rect class="cls-1" x="49.33" y="37.19" width="31.67" height="7" transform="translate(-9.68 57.99) rotate(-45)"/><polygon class="cls-1" points="78.48 38.48 79.85 25.78 67.21 27.53 78.48 38.48"/><rect class="cls-1" x="35.49" y="-1.1" width="7" height="32.79" transform="translate(22.23 -23.09) rotate(45)"/><polygon class="cls-1" points="52.69 12.7 54.06 0 41.43 1.74 52.69 12.7"/></g></g></svg>