<svg xmlns="http://www.w3.org/2000/svg" viewBox="0 0 32 32"><defs><style>.cls-1{fill:#a8c700}.cls-2{fill:none;stroke:#a8c700;stroke-miterlimit:10;stroke-width:3px}</style></defs><title>info-icon</title><g id="Layer_2" data-name="Layer 2"><g id="Layer_1-2" data-name="Layer 1"><g id="sjpjub.tif"><path d="M18.92,13.82a3.8,3.8,0,0,1-.19,1.11c-.15.46-.31.92-.48,1.37-.58,1.57-1.17,3.13-1.75,4.7-.1.27-.19.55-.29.83a1.17,1.17,0,0,0-.06.45.8.8,0,0,0,0,.15.31.31,0,0,0,.39.2,1.26,1.26,0,0,0,.48-.23,4.64,4.64,0,0,0,.76-.71l.86-1A3.7,3.7,0,0,1,19,20.4a.22.22,0,0,1,.32,0,.48.48,0,0,1,.1.51,4.38,4.38,0,0,1-.56.86,9.3,9.3,0,0,1-1.5,1.44,9.74,9.74,0,0,1-1.63,1.07,5.55,5.55,0,0,1-1.64.54,3,3,0,0,1-.85,0,1.76,1.76,0,0,1-.8-.26,1.28,1.28,0,0,1-.51-.79,2.17,2.17,0,0,1,0-.88,14.88,14.88,0,0,1,.94-3.2q.9-2.23,1.79-4.47c.1-.25.2-.51.28-.76a.59.59,0,0,0,0-.37.31.31,0,0,0-.32-.24.74.74,0,0,0-.41.11,3.14,3.14,0,0,0-.68.52c-.32.32-.61.66-.9,1a4.85,4.85,0,0,1-.54.57l-.13.1a.3.3,0,0,1-.34,0,.35.35,0,0,1-.11-.42,2.1,2.1,0,0,1,.29-.5,10.79,10.79,0,0,1,1-1.07,9.22,9.22,0,0,1,1.21-1,5.88,5.88,0,0,1,1.92-.88,6.19,6.19,0,0,1,.86-.15,2.86,2.86,0,0,1,1,.08,1.61,1.61,0,0,1,.78.47,1.33,1.33,0,0,1,.29.64c0,.17.05.34.07.51Z" class="cls-1"/><path d="M18.19,11.12a2.09,2.09,0,0,1-.92-.23A1.54,1.54,0,0,1,16.5,10a2.2,2.2,0,0,1,1.76-2.8,1.93,1.93,0,0,1,1.53.32,1.56,1.56,0,0,1,.64,1,2.06,2.06,0,0,1-.74,2.15,2.21,2.21,0,0,1-1.06.47l-.44,0Z" class="cls-1"/></g><circle cx="16" cy="16" r="14.5" class="cls-2"/></g></g></svg>