<svg xmlns="http://www.w3.org/2000/svg" viewBox="0 0 103.1 103.27"><defs><style>.cls-1{fill:#fff}</style></defs><title>jobs-icon</title><g id="Layer_2" data-name="Layer 2"><g id="BaseLayer"><rect width="18.31" height="18.31" x="27.1" y="43.36" class="cls-1" transform="translate(-26.52 41.02) rotate(-45)"/><rect width="18.31" height="18.31" x="42.03" y="58.29" class="cls-1" transform="translate(-32.7 55.95) rotate(-45)"/><rect width="18.31" height="18.31" x="56.68" y="72.95" class="cls-1" transform="translate(-38.77 70.6) rotate(-45)"/><rect width="18.31" height="18.31" x="12.17" y="58.29" class="cls-1" transform="translate(-41.45 34.84) rotate(-45)"/><path d="M13.29,43.21h2.11a0,0,0,0,1,0,0V61.52a0,0,0,0,1,0,0H-2.92a0,0,0,0,1,0,0V59.41A16.2,16.2,0,0,1,13.29,43.21Z" class="cls-1" transform="translate(-35.2 19.75) rotate(-45)"/><rect width="18.31" height="18.31" x="27.1" y="73.22" class="cls-1" transform="translate(-47.63 49.77) rotate(-45)"/><path d="M41.75,87.88H60.07a0,0,0,0,1,0,0v18.31a0,0,0,0,1,0,0H58A16.2,16.2,0,0,1,41.75,90V87.88a0,0,0,0,1,0,0Z" class="cls-1" transform="translate(-53.7 64.42) rotate(-45)"/><rect width="18.31" height="18.31" x="57.12" y="43.2" class="cls-1" transform="translate(-17.61 62.2) rotate(-45)"/><rect width="18.31" height="18.31" x="71.78" y="57.85" class="cls-1" transform="translate(-23.68 76.86) rotate(-45)"/><rect width="29.93" height="9.34" x="57.08" y="41.93" class="cls-1" transform="translate(-11.85 64.59) rotate(-45)"/><polygon points="86.97 43.23 88.4 30.02 75.25 31.84 86.97 43.23" class="cls-1"/><rect width="29.93" height="9.34" x="71.79" y="56.64" class="cls-1" transform="translate(-17.94 79.3) rotate(-45)"/><polygon points="101.68 57.94 103.1 44.73 89.95 46.54 101.68 57.94" class="cls-1"/><rect width="47.17" height="9.34" x="27.74" y="32.78" class="cls-1" transform="translate(-11.45 47.26) rotate(-45)"/><polygon points="72.04 28.3 73.46 15.09 60.31 16.9 72.04 28.3" class="cls-1"/><rect width="64" height="9.34" x="-2.01" y="23.95" class="cls-1" transform="translate(-11.45 29.58) rotate(-45)"/><polygon points="56.95 13.21 58.37 0 45.23 1.81 56.95 13.21" class="cls-1"/></g></g></svg>