<?xml version="1.0" encoding="utf-8"?>
<!-- Generator: Adobe Illustrator 22.1.0, SVG Export Plug-In . SVG Version: 6.00 Build 0)  -->
<svg version="1.1" id="Layer_1" xmlns="http://www.w3.org/2000/svg" xmlns:xlink="http://www.w3.org/1999/xlink" x="0px" y="0px"
	 viewBox="0 0 100 100" style="enable-background:new 0 0 100 100;" xml:space="preserve">
<style type="text/css">
	.st0{fill:#FFFFFF;}
</style>
<title>performance-icon</title>
<g id="Layer_2_1_">
	<g id="BaseLayer">
		<path class="st0" d="M44.1,2.8c1.6-1.6,3.7-2.4,5.9-2.3c2.2-0.1,4.4,0.8,6,2.3l-6,6L44.1,2.8z M32.3,14.6l6-5.9l6,5.9l-6,6
			L32.3,14.6z M20.5,26.4l5.8-5.8l5.9,5.9l-5.8,5.8L20.5,26.4z M8.7,38.2l5.9-6l6,6l-6,6L8.7,38.2z M2.8,55.9
			c-1.6-1.6-2.4-3.7-2.3-6c-0.1-2.2,0.8-4.4,2.3-5.9l6,5.9L2.8,55.9z M67.7,14.6l-5.9,6l-6-6l6-5.9L67.7,14.6z M20.4,50L50,20.4
			L79.6,50L50,79.6L20.4,50z M8.7,61.8l5.9-6l6,6l-6,5.9L8.7,61.8z M50,32.3L32.3,50L50,67.7L67.7,50L50,32.3z M79.5,26.4l-6,5.9
			l-5.8-5.8l6-6L79.5,26.4z M20.5,73.6l6-6l5.8,5.8l-5.9,6L20.5,73.6z M79.5,38.2l5.9-6l5.9,6l-5.9,6L79.5,38.2z M32.3,85.4l6-5.9
			l6,5.9l-6,5.9L32.3,85.4z M97.2,44.1c3.1,3.3,3.1,8.5,0,11.9l-6-6L97.2,44.1z M79.5,61.8l5.9-6l5.9,6l-6,5.9L79.5,61.8z
			 M67.7,73.5l5.8-5.8l5.9,6l-5.8,5.8L67.7,73.5z M55.8,85.4l5.9-5.9l5.9,5.9l-5.9,5.9L55.8,85.4z M44.1,97.2l5.9-6l6,6
			C52.7,100.3,47.4,100.3,44.1,97.2L44.1,97.2z"/>
	</g>
</g>
</svg>
