<svg xmlns="http://www.w3.org/2000/svg" xmlns:xlink="http://www.w3.org/1999/xlink" id="Layer_1" x="0" y="0" version="1.1" viewBox="0 0 100 100" xml:space="preserve" style="enable-background:new 0 0 100 100"><style type="text/css">.st0{fill:#fff}</style><title>projects-icon</title><g id="Layer_2_1_"><g id="BaseLayer"><path d="M94,23.4v0.1c0.1-2.1-0.7-4.2-2.2-5.7c-1.3-1.6-3.3-2.5-5.3-2.6h-44c-1.6-3.9-5.3-6.5-9.6-6.5H10.4 C4.7,8.7,0,13.4,0,19.2c0,0,0,0,0,0v4.2l0,0c0,0.1,0,0.1,0,0.2v59.6c0,2.1,0.9,4.2,2.4,5.6c1.4,1.6,3.4,2.5,5.6,2.5h78.5 c0.5,0,1,0,1.5-0.1v0.1h3.8c4.5-0.1,8.1-3.6,8.2-8.1V29.5C100,26.4,97,23.9,94,23.4z M86,83.2H8V23.4l0,0v-3.5 c0-1.2,0.4-2.3,1.1-3.2c0.8-0.7,1.8-1.1,2.9-1.1h19.8c1.7,0,3.3,1,4,2.6l2.5,5.3L86,23.2V83.2z" class="st0"/></g></g></svg>