<svg xmlns="http://www.w3.org/2000/svg" viewBox="0 0 100 100"><defs><style>.cls-1{fill:#fff;}</style></defs><title>real-time-data-icon</title><g id="Layer_2" data-name="Layer 2"><g id="BaseLayer"><path class="cls-1" d="M1.32,53.35,30.53,24.14l6.39,6.39L7.71,59.74a4.53,4.53,0,0,1-6.39,0h0A4.53,4.53,0,0,1,1.32,53.35Zm35.6,16.12-9.74,9.74a4.53,4.53,0,0,1-6.39,0h0a4.53,4.53,0,0,1,0-6.39l9.74-9.74Zm3.34,22.82L56.54,76l6.39,6.39L46.65,98.68a4.53,4.53,0,0,1-6.39,0h0A4.53,4.53,0,0,1,40.26,92.29ZM79.21,27.18,50,56.39,43.61,50,72.82,20.79a4.53,4.53,0,0,1,6.39,0h0A4.53,4.53,0,0,1,79.21,27.18Zm-9.74,35.9L92.29,40.26a4.53,4.53,0,0,1,6.39,0h0a4.53,4.53,0,0,1,0,6.39L75.86,69.47Zm-25.86-52,9.74-9.74a4.53,4.53,0,0,1,6.39,0h0a4.53,4.53,0,0,1,0,6.39L50,17.45Z"/><circle class="cls-1" cx="45.85" cy="14.51" r="7.73"/><circle class="cls-1" cx="74.52" cy="64.52" r="7.73"/><circle class="cls-1" cx="34.04" cy="65.65" r="7.73"/></g></g></svg>