<svg xmlns="http://www.w3.org/2000/svg" viewBox="0 0 158.04 101.01"><defs><style>.cls-1{fill:#fff}.cls-2{fill:#c8dc1e}</style></defs><title>speed-guage-icon</title><g id="Layer_2" data-name="Layer 2"><g id="Pop_Ups" data-name="Pop Ups"><path d="M106.54,81.26l-1.76-4.63a28.21,28.21,0,0,0-52.4-1l-1.92,4.55L0,49.59,1.89,46a86.61,86.61,0,0,1,154.38,2.63L158,52.28ZM78.41,49.86A36.94,36.94,0,0,1,110.7,69.14l36.07-20.3a78.1,78.1,0,0,0-135.39-2.3L46.72,68A36.68,36.68,0,0,1,78.41,49.86Z" class="cls-1"/><polygon points="117.59 38.91 75.31 79.09 77.77 87 85.7 89.4 125.57 46.84 128.59 35.82 117.59 38.91" class="cls-2"/><circle cx="78.35" cy="86.28" r="14.72" class="cls-2"/></g></g></svg>