<svg version="1" xmlns="http://www.w3.org/2000/svg" width="346.667" height="346.667" viewBox="0 0 260.000000 260.000000"><path d="M121.5 21.4c-1.6.8-9.4 7.9-17.3 15.8L90 51.5l6 6 6 6 13.8-13.8L129.5 36l13.8 13.7L157 63.5l6.2-6.3 6.3-6.2L156 37.5c-7.5-7.5-15.3-14.4-17.6-15.5-4.7-2.3-12.5-2.6-16.9-.6z"/><path d="M174.6 60.9l-9.8 9.9 4.1.7c2.2.4 4.1 1.1 4.1 1.6 0 2.9-5.8 12.6-10.2 17-9.2 9.2-23.9 14.3-34.8 12-8.9-1.9-18.4-7.7-30.2-18.3-5.9-5.2-7.5-7.4-8.5-10.9-.7-2.5-2.5-5.7-4.3-7.4-2.8-2.6-3.8-3-9-3-5.3 0-6.2.3-9.4 3.4-5.7 5.5-5.8 14-.4 19.8 1.1 1.2 4.2 2.7 7 3.3 3.8 1 7.2 3.1 15.1 9.7 14 11.5 19.3 15 27.3 18 9.3 3.4 23.3 4.2 32.4 1.9 18.8-4.7 34.4-18.8 40.6-36.5 2.2-6.4 2.4-6.6 6.3-7.1l3.9-.5-6.5-11c-3.5-6.1-6.8-11.3-7.2-11.7-.4-.4-5.1 3.7-10.5 9.1z"/><path d="M35.8 105.7c-11.5 11.7-14.8 15.6-15.7 18.8-2.5 9.1-.8 13 10.8 24.9 13.8 14.2 30 25.9 46.1 33.5 12.7 5.9 21.7 8.2 35.3 8.8l11.7.6.1 2.6c.1 6.5 1 6.3 11.4-3.5 8-7.6 9.7-9.6 8.5-10.4-.8-.5-6-3.8-11.5-7.3l-10-6.4-.3 3.4-.3 3.5-6.7-.7c-19.6-2-36.2-8.9-56.7-23.5-7.9-5.7-18.1-15.6-20.3-19.6-1-1.8-.3-2.9 6.4-9.5l7.4-7.4 4.7 5.5c7.6 8.9 14.2 14.7 23.6 21 27.7 18.4 65.9 20.4 94.6 4.9 5.1-2.7 5.5-2.8 6.7-1.1 4.2 5.8 3.7 6.4 8.2-7.9 2.3-7.3 4-13.4 3.9-13.6-.6-.5-27.7-1.8-27.7-1.3 0 .3.7 1.4 1.5 2.4.8 1.1 1.5 2.3 1.5 2.7 0 .3-3.3 2.2-7.2 4.2-17.8 8.6-35.3 9.6-56 3.1-11-3.5-19.4-9.6-37.3-27.2C59.9 97.9 52.4 91 51.7 91c-.7 0-7.9 6.6-15.9 14.7zM201.7 96.7l-5.7 5.8 13.7 13.7 13.8 13.8-13.8 13.8-13.7 13.7 5.8 5.8c3.2 3.1 6.2 5.7 6.8 5.7 2 0 28.3-27.6 29.9-31.3 1.9-4.6 1.9-10.8 0-15.4-1.6-3.8-28-31.3-30-31.3-.5 0-3.6 2.6-6.8 5.7z"/><path d="M95.7 202.8l-5.7 5.7 14.8 14.7c8.1 8.1 16 15.2 17.5 15.8 4.4 1.6 11.7 1.2 16.1-1 2.3-1.1 10.1-8 17.6-15.5l13.5-13.5-6.3-6.2-6.2-6.3-13.8 13.8-13.7 13.7-13.5-13.5c-7.4-7.4-13.7-13.5-14-13.5-.3 0-3.1 2.6-6.3 5.8z"/></svg>