<?xml version="1.0" encoding="utf-8"?>
<!-- Generator: Adobe Illustrator 22.0.1, SVG Export Plug-In . SVG Version: 6.00 Build 0)  -->
<svg version="1.1" id="Layer_1" xmlns="http://www.w3.org/2000/svg" xmlns:xlink="http://www.w3.org/1999/xlink" x="0px" y="0px"
	 viewBox="0 0 50 50" style="enable-background:new 0 0 50 50;" xml:space="preserve">
<style type="text/css">
	.st0{fill:#FFFFFF;}
</style>
<g>
	<g>
		<path class="st0" d="M31.3,40.4c-1.1,0-2-0.9-2-2v-24c-9.1-3.6-16.3-3.6-25.4,0v24c0,1.1-0.9,2-2,2s-2-0.9-2-2V13.1
			c0-0.8,0.5-1.5,1.2-1.8c11.1-4.6,19.7-4.6,30.8,0c0.7,0.3,1.2,1,1.2,1.8v25.4C33.2,39.5,32.4,40.4,31.3,40.4z"/>
	</g>
	<g>
		<path class="st0" d="M31.3,30.9c-0.2,0-0.5,0-0.7-0.1c-5.3-2.2-9.1-2.6-14.2-2.6c-2.7,0-4.2,0.3-6.9,0.8c-1.1,0.2-2.1-0.5-2.3-1.5
			c-0.2-1.1,0.5-2.1,1.5-2.3c2.6-0.5,4.6-0.9,7.7-0.9c5.5,0,9.8,0.5,15.7,2.9c1,0.4,1.5,1.6,1.1,2.6C32.8,30.4,32.1,30.9,31.3,30.9z
			"/>
	</g>
	<g>
		<path class="st0" d="M48,22.6H31.3c-1.1,0-2-0.9-2-2c0-1.1,0.9-2,2-2H48c1.1,0,2,0.9,2,2C50,21.8,49.1,22.6,48,22.6z"/>
	</g>
	<g>
		<path class="st0" d="M39.7,32.2h-8.4c-1.1,0-2-0.9-2-2c0-1.1,0.9-2,2-2h8.4c1.1,0,2,0.9,2,2C41.6,31.3,40.7,32.2,39.7,32.2z"/>
	</g>
	<g>
		<path class="st0" d="M12.5,40.6c-1.1,0-2-0.9-2-2V28.1c0-1.1,0.9-2,2-2s2,0.9,2,2v10.5C14.5,39.7,13.6,40.6,12.5,40.6z"/>
	</g>
	<g>
		<path class="st0" d="M21.4,40.6c-1.1,0-2-0.9-2-2V28.1c0-1.1,0.9-2,2-2s2,0.9,2,2v10.5C23.3,39.7,22.5,40.6,21.4,40.6z"/>
	</g>
</g>
</svg>
