<svg xmlns="http://www.w3.org/2000/svg" viewBox="0 0 74.96 74.96"><defs><style>.cls-1{fill:#abcf37;}</style></defs><title>circular-arrow</title><g id="Layer_2" data-name="Layer 2"><g id="Pop_Ups" data-name="Pop Ups"><path class="cls-1" d="M11,11A36.09,36.09,0,0,1,37.48,0,36.1,36.1,0,0,1,64,11,36.1,36.1,0,0,1,75,37.48,36.1,36.1,0,0,1,64,64,36.1,36.1,0,0,1,37.48,75,36.09,36.09,0,0,1,11,64,36.07,36.07,0,0,1,0,37.48,36.07,36.07,0,0,1,11,11Zm5.28,47.68a29,29,0,0,0,21.2,8.89,29,29,0,0,0,21.2-8.89,29,29,0,0,0,8.89-21.2,29,29,0,0,0-8.89-21.2,28.91,28.91,0,0,0-21.2-8.89,28.91,28.91,0,0,0-21.2,8.89,28.91,28.91,0,0,0-8.89,21.2A28.91,28.91,0,0,0,16.28,58.68Z"/><path class="cls-1" d="M3.85,41.33v-7.7H41.61L27.67,19.5l5.5-5.5L56.65,37.48,33.17,61l-5.5-5.51L41.61,41.33Z"/></g></g></svg>