<svg xmlns="http://www.w3.org/2000/svg" viewBox="0 0 82.08 82.15"><defs><style>.cls-1{fill:#fff;}</style></defs><title>core-hours-icon</title><g id="Layer_2" data-name="Layer 2"><g id="BaseLayer"><path class="cls-1" d="M62.2,21a3.82,3.82,0,0,0-5.09.36L41.25,37.21l-6-6.05a4,4,0,0,0-5.28-.37,3.85,3.85,0,0,0-.28,5.7l6.16,6.16,0,0L39,45.92a2.87,2.87,0,0,0,4,0L62.47,26.48A3.71,3.71,0,0,0,62.2,21Z"/><path class="cls-1" d="M73.51,15.91a3.39,3.39,0,0,0-5.36,4.16A34.29,34.29,0,0,1,41,75.36h0a33.92,33.92,0,0,1-19.55-6.14l2-2.44-9.34.83L15,77l2.1-2.51a40.83,40.83,0,0,0,21.76,7.65c.72,0,1.43.06,2.15.06A41.08,41.08,0,0,0,73.51,15.91Z"/><path class="cls-1" d="M14,62.13a34.38,34.38,0,0,1-1.1-40.61l2.44,2-.84-9.33-9.34.83,2.51,2.09a41.14,41.14,0,0,0,1,49.16,3.42,3.42,0,0,0,2.5,1.3h.18a3.36,3.36,0,0,0,2.09-.71A3.41,3.41,0,0,0,14,62.13Z"/><path class="cls-1" d="M17.78,14.7H18A3.34,3.34,0,0,0,20,14a34.34,34.34,0,0,1,21-7.2,34,34,0,0,1,19.5,6.09l-2,2.44,9.33-.86L67,5.13,64.9,7.64A40.7,40.7,0,0,0,41.05,0,41.19,41.19,0,0,0,15.87,8.63a3.39,3.39,0,0,0-1.28,2.26,3.4,3.4,0,0,0,3.19,3.81Z"/></g></g></svg>