<svg xmlns="http://www.w3.org/2000/svg" viewBox="0 0 69.63 57.45"><defs><style>.cls-1{fill:#fff;}</style></defs><title>folder-check-mark-icon</title><g id="Layer_2" data-name="Layer 2"><g id="BaseLayer"><path class="cls-1" d="M65.45,10.22v.08a5.38,5.38,0,0,0-1.52-4,5.09,5.09,0,0,0-3.71-1.79H29.61A7.2,7.2,0,0,0,22.92,0H7.27A7.26,7.26,0,0,0,0,7.27v2.89H0c0,.05,0,.1,0,.14V51.8a5.45,5.45,0,0,0,1.7,3.92,5.38,5.38,0,0,0,3.88,1.73H60.22a5.69,5.69,0,0,0,1-.1v.1h2.64a5.82,5.82,0,0,0,5.75-5.65V14.44C69.63,12.29,67.54,10.51,65.45,10.22ZM59.88,51.88H5.57V10.16h0V7.72a3.56,3.56,0,0,1,.76-2.26,3.07,3.07,0,0,1,2.05-.78H22.17A3,3,0,0,1,25,6.49l1.76,3.67,33.17-.06Z"/><path class="cls-1" d="M48,20a3.52,3.52,0,0,0-4.7.33L28.61,34.93,23,29.35A3.66,3.66,0,0,0,18.15,29a3.55,3.55,0,0,0-.26,5.26L23.58,40l0,0,3,3a2.63,2.63,0,0,0,3.72,0L48.2,25A3.43,3.43,0,0,0,48,20Z"/></g></g></svg>