<?xml version="1.0" encoding="utf-8"?>
<!-- Generator: Adobe Illustrator 22.1.0, SVG Export Plug-In . SVG Version: 6.00 Build 0)  -->
<svg version="1.1" id="Layer_1" xmlns="http://www.w3.org/2000/svg" xmlns:xlink="http://www.w3.org/1999/xlink" x="0px" y="0px"
	 viewBox="0 0 100 100" style="enable-background:new 0 0 100 100;" xml:space="preserve">
<style type="text/css">
	.st0{fill:#FFFFFF;}
</style>
<title>live-data-icon-2</title>
<g id="Layer_2_1_">
	<g id="Layer_1-2">
		<circle class="st0" cx="50" cy="50" r="8.7"/>
		<path class="st0" d="M85.3,17c-1.3-1.3-3.3-1.3-4.6,0c-1.3,1.3-1.3,3.3,0,4.6l0,0c15.7,15.7,15.7,41.2,0,56.9
			c-1.3,1.3-1.3,3.3,0,4.5c0,0,0,0,0,0c1.3,1.3,3.3,1.3,4.6,0C103.5,64.8,103.5,35.2,85.3,17L85.3,17z"/>
		<path class="st0" d="M7.4,50c0-10.7,4.2-21,11.8-28.5c1.3-1.3,1.3-3.3,0-4.6s-3.3-1.3-4.6,0c-18.2,18.2-18.2,47.8,0,66
			c1.3,1.3,3.3,1.3,4.6,0c1.3-1.3,1.3-3.3,0-4.6l0,0C11.7,70.9,7.4,60.7,7.4,50z"/>
		<path class="st0" d="M20.2,50c0-7.6,3-14.9,8.4-20.3c1.3-1.3,1.3-3.3,0-4.6s-3.3-1.3-4.6,0l0,0c-13.7,13.7-13.7,35.9,0,49.6
			c0,0,0,0,0,0c1.3,1.3,3.3,1.3,4.6,0c1.3-1.3,1.3-3.3,0-4.6l0,0C23.2,64.9,20.2,57.6,20.2,50z"/>
		<path class="st0" d="M76,25.2c-1.2-1.3-3.2-1.4-4.6-0.2c-1.3,1.2-1.4,3.2-0.2,4.5c0.1,0.1,0.1,0.1,0.2,0.2
			c11.2,11.2,11.2,29.3,0,40.5c-1.3,1.3-1.3,3.3,0,4.6c1.3,1.3,3.3,1.3,4.6,0l0,0C89.7,61.1,89.7,38.9,76,25.2
			C76,25.2,76,25.2,76,25.2z"/>
		<path class="st0" d="M66.9,33.1c-1.4-1.4-3.7-1.4-5.1,0s-1.4,3.7,0,5.1l0,0c6.5,6.5,6.5,17.1,0,23.6c-1.4,1.4-1.4,3.7,0,5.1
			c0.7,0.7,1.6,1.1,2.5,1.1c1,0,1.9-0.4,2.6-1.1C76.2,57.6,76.2,42.4,66.9,33.1C66.9,33.1,66.9,33.1,66.9,33.1z"/>
		<path class="st0" d="M37.9,33.4c-1.3-1.3-3.3-1.3-4.6,0c-9.2,9.2-9.2,24.1,0,33.2c1.3,1.3,3.3,1.3,4.6,0s1.3-3.3,0-4.6
			c-6.7-6.7-6.7-17.5,0-24.1C39.2,36.7,39.2,34.6,37.9,33.4z"/>
	</g>
</g>
</svg>
