<svg xmlns="http://www.w3.org/2000/svg" viewBox="0 0 98 67.9"><defs><style>.cls-1{fill:#fff;}</style></defs><title>live-data-icon-2</title><g id="Layer_2" data-name="Layer 2"><g id="Layer_1-2" data-name="Layer 1"><circle class="cls-1" cx="49" cy="33.95" r="8.69"/><path class="cls-1" d="M84.33.94A3.22,3.22,0,0,0,79.78,5.5a40.26,40.26,0,0,1,0,56.91,3.21,3.21,0,0,0,0,4.55,3.22,3.22,0,0,0,4.55,0,46.69,46.69,0,0,0,0-66Z"/><path class="cls-1" d="M6.44,34A40,40,0,0,1,18.23,5.5,3.22,3.22,0,0,0,13.67.94a46.69,46.69,0,0,0,0,66,3.22,3.22,0,1,0,4.56-4.55A40,40,0,0,1,6.44,34Z"/><path class="cls-1" d="M19.19,34a28.47,28.47,0,0,1,8.39-20.26A3.22,3.22,0,1,0,23,9.14a35.09,35.09,0,0,0,0,49.63,3.22,3.22,0,1,0,4.55-4.56A28.45,28.45,0,0,1,19.19,34Z"/><path class="cls-1" d="M75,9.14a3.22,3.22,0,1,0-4.55,4.55,28.66,28.66,0,0,1,0,40.52A3.22,3.22,0,0,0,75,58.77,35.09,35.09,0,0,0,75,9.14Z"/><path class="cls-1" d="M65.9,17.05a3.62,3.62,0,1,0-5.12,5.12,16.66,16.66,0,0,1,0,23.56,3.63,3.63,0,0,0,2.56,6.19,3.59,3.59,0,0,0,2.56-1.07,23.9,23.9,0,0,0,0-33.8Z"/><path class="cls-1" d="M36.94,17.33a3.24,3.24,0,0,0-4.56,0,23.51,23.51,0,0,0,0,33.24A3.22,3.22,0,1,0,36.93,46a17.08,17.08,0,0,1,0-24.13A3.23,3.23,0,0,0,36.94,17.33Z"/></g></g></svg>