<svg xmlns="http://www.w3.org/2000/svg" viewBox="0 0 87.82 94.66"><defs><style>.cls-1{fill:#fff;}</style></defs><title>memory-icon</title><g id="Layer_2" data-name="Layer 2"><g id="BaseLayer"><path class="cls-1" d="M43.41,80.25a4,4,0,0,1-4-4V39.85a4,4,0,1,1,8,0v36.4A4,4,0,0,1,43.41,80.25Z"/><path class="cls-1" d="M14.34,26.05A4,4,0,0,1,19.61,24L44.3,34.92a4,4,0,1,1-3.19,7.33L16.41,31.32A4,4,0,0,1,14.34,26.05Z"/><path class="cls-1" d="M73,26.05A4,4,0,0,0,67.72,24L43,34.92a4,4,0,0,0,3.19,7.33l24.7-10.93A4,4,0,0,0,73,26.05Z"/><path class="cls-1" d="M85.75,16.13,46,.56a4.11,4.11,0,0,0-4.14,0L2.06,16.13A4.14,4.14,0,0,0,0,19.71V71.24a4.13,4.13,0,0,0,2.06,3.57l39.78,19.3a4.17,4.17,0,0,0,4.14,0l39.77-19.3a4.12,4.12,0,0,0,2.07-3.57V19.71A4.13,4.13,0,0,0,85.75,16.13ZM80,69.1l-36,17.09L7.86,69.1V21.8L43.91,8.47,80,21.8Z"/></g></g></svg>