<svg xmlns="http://www.w3.org/2000/svg" viewBox="0 0 99.01 99.01"><defs><style>.cls-1{fill:#fff;}</style></defs><title>performance-icon</title><g id="Layer_2" data-name="Layer 2"><g id="BaseLayer"><path class="cls-1" d="M43.56,2.35A8,8,0,0,1,49.5,0a8.06,8.06,0,0,1,6,2.35l-6,6ZM31.8,14.1l5.95-5.94,6,5.94-6,6ZM20.05,25.86l5.81-5.81L31.8,26,26,31.8ZM8.16,37.75,14.1,31.8l6,5.95-6,6ZM2.35,55.45A8.06,8.06,0,0,1,0,49.5a8,8,0,0,1,2.35-5.94l6,5.94ZM67.2,14.1l-5.94,6-5.95-6,5.95-5.94ZM19.91,49.5,49.5,19.91,79.09,49.5,49.5,79.09ZM8.16,61.26l5.94-5.95,6,5.95-6,5.94ZM49.5,31.8,31.8,49.5,49.5,67.2,67.2,49.5ZM79,25.86,73,31.8,67.2,26l6-5.95ZM20.05,73.15l5.95-6L31.8,73,25.86,79ZM79,37.75,84.9,31.8l5.95,5.95-5.95,6ZM31.8,84.9,37.75,79l6,5.94-6,5.95ZM96.66,43.56a8.69,8.69,0,0,1,0,11.89l-6-6ZM79,61.26l5.94-5.95,5.95,5.95L84.9,67.2ZM67.2,73,73,67.2l5.95,6L73.15,79ZM55.31,84.9,61.26,79,67.2,84.9l-5.94,5.95ZM43.56,96.66l5.94-6,6,6a8.69,8.69,0,0,1-11.89,0Z"/></g></g></svg>