<svg xmlns="http://www.w3.org/2000/svg" viewBox="0 0 100 82.5"><defs><style>.cls-1{fill:#fff;}</style></defs><title>projects-icon</title><g id="Layer_2" data-name="Layer 2"><g id="BaseLayer"><path class="cls-1" d="M94,14.67v.12a7.79,7.79,0,0,0-2.18-5.72A7.38,7.38,0,0,0,86.48,6.5h-44A10.34,10.34,0,0,0,32.92,0H10.44A10.43,10.43,0,0,0,0,10.44V14.6H0c0,.06,0,.13,0,.19v59.6A7.8,7.8,0,0,0,2.44,80,7.73,7.73,0,0,0,8,82.5H86.48A7.8,7.8,0,0,0,88,82.36v.14h3.79A8.35,8.35,0,0,0,100,74.39V20.74C100,17.64,97,15.1,94,14.67ZM86,74.5H8V14.6H8V11.08A5.17,5.17,0,0,1,9.09,7.84,4.43,4.43,0,0,1,12,6.72h19.8a4.36,4.36,0,0,1,4,2.6l2.52,5.28L86,14.5Z"/></g></g></svg>